<svg width="79" height="26" viewBox="0 0 79 26" fill="none" xmlns="http://www.w3.org/2000/svg">
<rect x="0.551758" y="-0.00012207" width="78.0345" height="25.6552" rx="12.8276" fill="black" fill-opacity="0.24"/>
<path d="M17.6547 19.2413L13.8753 15.4841C13.1278 14.7411 12.6188 13.7943 12.4125 12.7636C12.2063 11.7329 12.3122 10.6646 12.7167 9.69371C13.1212 8.72282 13.8063 7.89299 14.6853 7.30915C15.5642 6.72532 16.5976 6.4137 17.6547 6.4137C18.7118 6.4137 19.7451 6.72532 20.6241 7.30915C21.503 7.89299 22.1881 8.72282 22.5926 9.69371C22.9972 10.6646 23.103 11.7329 22.8968 12.7636C22.6906 13.7943 22.1815 14.7411 21.4341 15.4841L17.6547 19.2413ZM20.5943 14.6494C21.1757 14.0714 21.5715 13.335 21.7319 12.5334C21.8923 11.7317 21.8099 10.9008 21.4953 10.1457C21.1806 9.39062 20.6478 8.74522 19.9642 8.29114C19.2806 7.83706 18.4768 7.59469 17.6547 7.59469C16.8325 7.59469 16.0288 7.83706 15.3452 8.29114C14.6615 8.74522 14.1287 9.39062 13.8141 10.1457C13.4994 10.9008 13.4171 11.7317 13.5774 12.5334C13.7378 13.335 14.1337 14.0714 14.715 14.6494L17.6547 17.5717L20.5943 14.6494ZM17.6547 12.9078C17.3397 12.9078 17.0376 12.7834 16.8148 12.5619C16.5921 12.3405 16.4669 12.0402 16.4669 11.727C16.4669 11.4139 16.5921 11.1135 16.8148 10.8921C17.0376 10.6707 17.3397 10.5463 17.6547 10.5463C17.9697 10.5463 18.2718 10.6707 18.4945 10.8921C18.7173 11.1135 18.8424 11.4139 18.8424 11.727C18.8424 12.0402 18.7173 12.3405 18.4945 12.5619C18.2718 12.7834 17.9697 12.9078 17.6547 12.9078Z" fill="white"/>
<path d="M35.6908 16.5494V17.3447H31.3422V16.5494H33.1638V11.0592C33.0953 11.1618 32.9799 11.273 32.8174 11.3927C32.6549 11.5125 32.4668 11.6236 32.253 11.7262C32.0478 11.8289 31.8425 11.9144 31.6373 11.9828C31.432 12.0512 31.2439 12.0854 31.0729 12.0854V11.2388C31.2695 11.2388 31.4833 11.1832 31.7142 11.072C31.9451 10.9609 32.1675 10.8326 32.3813 10.6872C32.5951 10.5418 32.7747 10.405 32.92 10.2767C33.0654 10.1485 33.1467 10.0629 33.1638 10.0202H34.0617V16.5494H35.6908ZM36.8034 17.3447V16.0876H37.5602V17.3447H36.8034ZM41.7606 19.256C41.1193 19.256 40.5377 19.0936 40.0161 18.7686C39.4944 18.4522 39.1053 18.0331 38.8488 17.5115L39.426 17.0753C39.6655 17.4944 39.9904 17.8322 40.4009 18.0887C40.82 18.3453 41.2775 18.4736 41.7735 18.4736C42.2011 18.4736 42.5816 18.3795 42.9151 18.1913C43.2572 18.0032 43.5266 17.7424 43.7233 17.4089C43.9285 17.0753 44.0311 16.6905 44.0311 16.2544C44.0311 15.8353 43.9328 15.4676 43.7361 15.1512C43.548 14.8262 43.2871 14.574 42.9536 14.3944C42.6286 14.2148 42.2609 14.125 41.8504 14.125C41.4571 14.125 41.0808 14.2148 40.7216 14.3944C40.3624 14.5654 40.0717 14.8177 39.8493 15.1512H39.0412L40.0546 10.0202H44.4544V10.8283H40.7088L40.0802 14.0993C40.3026 13.8599 40.5762 13.676 40.9012 13.5478C41.2262 13.4109 41.5768 13.3425 41.9531 13.3425C42.5089 13.3425 43.0092 13.4665 43.4539 13.7145C43.9071 13.9625 44.2663 14.3046 44.5314 14.7407C44.7965 15.1769 44.9291 15.6771 44.9291 16.2416C44.9291 16.8402 44.7837 17.3661 44.4929 17.8193C44.2107 18.2726 43.8302 18.6232 43.3513 18.8712C42.8724 19.1278 42.3422 19.256 41.7606 19.256ZM54.3933 17.3447L51.9176 13.9198L50.4937 15.2538V17.3447H49.6214V7.98059H50.4937V14.3174L54.2779 10.6744H55.2399L52.5077 13.4067L55.3425 17.3447H54.3933ZM66.365 17.3447H65.4927V13.6119C65.4927 12.8337 65.3687 12.2607 65.1207 11.893C64.8727 11.5253 64.505 11.3414 64.0175 11.3414C63.513 11.3414 63.0597 11.521 62.6578 11.8802C62.2644 12.2393 61.9865 12.7011 61.824 13.2656V17.3447H60.9517V13.6119C60.9517 12.8251 60.832 12.2522 60.5925 11.893C60.3531 11.5253 59.9854 11.3414 59.4894 11.3414C58.9934 11.3414 58.5444 11.5167 58.1425 11.8673C57.7405 12.218 57.4583 12.6798 57.2958 13.2527V17.3447H56.4236V10.6616H57.2189V12.1752C57.5011 11.6536 57.8603 11.2516 58.2964 10.9694C58.7411 10.6872 59.2328 10.5461 59.7716 10.5461C60.3274 10.5461 60.7764 10.7043 61.1185 11.0207C61.4605 11.3371 61.6701 11.7519 61.747 12.265C62.0549 11.7006 62.4226 11.273 62.8502 10.9822C63.2863 10.6915 63.7781 10.5461 64.3254 10.5461C64.7016 10.5461 65.0181 10.6145 65.2746 10.7513C65.5397 10.8882 65.7492 11.0849 65.9032 11.3414C66.0656 11.5894 66.1811 11.893 66.2495 12.2522C66.3265 12.6028 66.365 12.9962 66.365 13.4323V17.3447Z" fill="white"/>
</svg>
