<svg width="79" height="26" viewBox="0 0 79 26" fill="none" xmlns="http://www.w3.org/2000/svg">
<rect x="0.551758" y="-0.00012207" width="78.0345" height="25.6552" rx="12.8276" fill="black" fill-opacity="0.24"/>
<path d="M17.6547 19.2413L13.8753 15.4841C13.1278 14.7411 12.6188 13.7943 12.4125 12.7636C12.2063 11.7329 12.3122 10.6646 12.7167 9.69371C13.1212 8.72282 13.8063 7.89299 14.6853 7.30915C15.5642 6.72532 16.5976 6.4137 17.6547 6.4137C18.7118 6.4137 19.7451 6.72532 20.6241 7.30915C21.503 7.89299 22.1881 8.72282 22.5926 9.69371C22.9972 10.6646 23.103 11.7329 22.8968 12.7636C22.6906 13.7943 22.1815 14.7411 21.4341 15.4841L17.6547 19.2413ZM20.5943 14.6494C21.1757 14.0714 21.5715 13.335 21.7319 12.5334C21.8923 11.7317 21.8099 10.9008 21.4953 10.1457C21.1806 9.39062 20.6478 8.74522 19.9642 8.29114C19.2806 7.83706 18.4768 7.59469 17.6547 7.59469C16.8325 7.59469 16.0288 7.83706 15.3452 8.29114C14.6615 8.74522 14.1287 9.39062 13.8141 10.1457C13.4994 10.9008 13.4171 11.7317 13.5774 12.5334C13.7378 13.335 14.1337 14.0714 14.715 14.6494L17.6547 17.5717L20.5943 14.6494ZM17.6547 12.9078C17.3397 12.9078 17.0376 12.7834 16.8148 12.5619C16.5921 12.3405 16.4669 12.0402 16.4669 11.727C16.4669 11.4139 16.5921 11.1135 16.8148 10.8921C17.0376 10.6707 17.3397 10.5463 17.6547 10.5463C17.9697 10.5463 18.2718 10.6707 18.4945 10.8921C18.7173 11.1135 18.8424 11.4139 18.8424 11.727C18.8424 12.0402 18.7173 12.3405 18.4945 12.5619C18.2718 12.7834 17.9697 12.9078 17.6547 12.9078Z" fill="white"/>
<path d="M35.6908 16.5494V17.3447H31.3422V16.5494H33.1638V11.0592C33.0697 11.1875 32.8987 11.3329 32.6507 11.4953C32.4027 11.6578 32.1333 11.7989 31.8425 11.9187C31.5518 12.0298 31.2952 12.0854 31.0729 12.0854V11.2388C31.2695 11.2388 31.4833 11.1832 31.7142 11.072C31.9537 10.9609 32.176 10.8326 32.3813 10.6872C32.5951 10.5333 32.7747 10.3922 32.92 10.2639C33.0654 10.1356 33.1467 10.0544 33.1638 10.0202H34.0617V16.5494H35.6908ZM36.8034 17.3447V16.0876H37.5602V17.3447H36.8034ZM45.3652 14.8177C45.3652 15.3479 45.2155 15.8097 44.9162 16.2031C44.6255 16.5965 44.2364 16.9043 43.7489 17.1267C43.27 17.3405 42.7441 17.4473 42.1711 17.4473C41.564 17.4473 41.0252 17.3276 40.5548 17.0882C40.0845 16.8402 39.7125 16.5152 39.4388 16.1133C39.1737 15.7113 39.0412 15.2624 39.0412 14.7664C39.0412 14.3816 39.131 14.0352 39.3106 13.7273C39.4902 13.4195 39.7211 13.1587 40.0033 12.9449C40.2855 12.7311 40.572 12.5729 40.8627 12.4702C40.4608 12.3078 40.1102 12.064 39.8108 11.7391C39.5115 11.4056 39.3619 11.0122 39.3619 10.5589C39.3619 10.1827 39.4431 9.85342 39.6056 9.57121C39.7766 9.28045 39.999 9.03673 40.2726 8.84004C40.5548 8.64335 40.8627 8.49369 41.1962 8.39107C41.5297 8.28845 41.8675 8.23714 42.2096 8.23714C42.6628 8.23714 43.1075 8.32693 43.5437 8.50652C43.9798 8.67755 44.339 8.93838 44.6212 9.289C44.912 9.63107 45.0573 10.0501 45.0573 10.5461C45.0573 10.9993 44.9034 11.3927 44.5955 11.7262C44.2962 12.0598 43.9413 12.3078 43.5308 12.4702C44.0268 12.6413 44.4544 12.932 44.8136 13.3425C45.1813 13.753 45.3652 14.2447 45.3652 14.8177ZM40.2342 10.5974C40.2342 10.9309 40.3368 11.2131 40.542 11.444C40.7473 11.6749 40.9995 11.8502 41.2988 11.97C41.5982 12.0897 41.8975 12.1496 42.1968 12.1496C42.5046 12.1496 42.8082 12.0897 43.1075 11.97C43.4068 11.8417 43.6591 11.6621 43.8644 11.4312C44.0696 11.1918 44.1722 10.9053 44.1722 10.5718C44.1722 10.2468 44.0782 9.96886 43.89 9.73797C43.7019 9.50707 43.4539 9.33176 43.146 9.21204C42.8467 9.09231 42.526 9.03245 42.184 9.03245C41.8504 9.03245 41.534 9.09659 41.2347 9.22486C40.944 9.34459 40.7045 9.52418 40.5164 9.76362C40.3282 9.99452 40.2342 10.2725 40.2342 10.5974ZM44.4801 14.7536C44.4801 14.3516 44.3646 14.0096 44.1337 13.7273C43.9028 13.4366 43.6078 13.2185 43.2486 13.0731C42.898 12.9192 42.5431 12.8422 42.184 12.8422C41.8162 12.8422 41.4571 12.9235 41.1064 13.086C40.7644 13.2399 40.4822 13.4622 40.2598 13.753C40.046 14.0438 39.9391 14.3816 39.9391 14.7664C39.9391 15.1598 40.0546 15.5018 40.2855 15.7926C40.5164 16.0748 40.8071 16.2929 41.1577 16.4468C41.5084 16.5922 41.8633 16.6649 42.2224 16.6649C42.5902 16.6649 42.9451 16.5879 43.2871 16.434C43.6377 16.2715 43.9242 16.0491 44.1466 15.7669C44.3689 15.4762 44.4801 15.1384 44.4801 14.7536ZM55.0071 17.3447L52.5314 13.9198L51.1075 15.2538V17.3447H50.2353V7.98059H51.1075V14.3174L54.8917 10.6744H55.8537L53.1215 13.4067L55.9564 17.3447H55.0071ZM66.9788 17.3447H66.1065V13.6119C66.1065 12.8422 65.9825 12.2736 65.7345 11.9058C65.4865 11.5296 65.1188 11.3414 64.6313 11.3414C64.1182 11.3414 63.665 11.521 63.2716 11.8802C62.8782 12.2393 62.6003 12.7011 62.4378 13.2656V17.3447H61.5655V13.6119C61.5655 12.8251 61.4415 12.2522 61.1935 11.893C60.9541 11.5253 60.5906 11.3414 60.1032 11.3414C59.5986 11.3414 59.1454 11.5167 58.7435 11.8673C58.3501 12.218 58.0722 12.6798 57.9097 13.2527V17.3447H57.0374V10.6616H57.8327V12.1752C58.1064 11.6621 58.4655 11.2645 58.9102 10.9822C59.3549 10.6915 59.8466 10.5461 60.3854 10.5461C60.9413 10.5461 61.3902 10.7086 61.7323 11.0336C62.0744 11.35 62.2839 11.7605 62.3608 12.265C62.9766 11.1191 63.836 10.5461 64.9392 10.5461C65.6917 10.5461 66.2177 10.8112 66.517 11.3414C66.8248 11.8631 66.9788 12.56 66.9788 13.4323V17.3447Z" fill="white"/>
</svg>
